<svg xmlns="http://www.w3.org/2000/svg" viewBox="0 0 128 128">
  <!-- Skull outline - blocky rectangles -->
  <rect x="32" y="16" width="64" height="8" fill="#fff"/>
  <rect x="24" y="24" width="80" height="8" fill="#fff"/>
  <rect x="16" y="32" width="96" height="48" fill="#fff"/>
  <rect x="24" y="80" width="80" height="16" fill="#fff"/>
  <rect x="32" y="96" width="64" height="8" fill="#fff"/>
  
  <!-- Black border pixels -->
  <rect x="32" y="8" width="64" height="8" fill="#000"/>
  <rect x="16" y="16" width="8" height="8" fill="#000"/>
  <rect x="104" y="16" width="8" height="8" fill="#000"/>
  <rect x="8" y="24" width="8" height="56" fill="#000"/>
  <rect x="112" y="24" width="8" height="56" fill="#000"/>
  <rect x="16" y="80" width="8" height="16" fill="#000"/>
  <rect x="104" y="80" width="8" height="16" fill="#000"/>
  <rect x="24" y="96" width="8" height="8" fill="#000"/>
  <rect x="96" y="96" width="8" height="8" fill="#000"/>
  
  <!-- Left eye - rectangular blocks -->
  <rect x="40" y="40" width="8" height="8" fill="#000"/>
  <rect x="32" y="48" width="24" height="16" fill="#000"/>
  <rect x="40" y="64" width="8" height="8" fill="#000"/>
  
  <!-- Right eye - rectangular blocks -->
  <rect x="80" y="40" width="8" height="8" fill="#000"/>
  <rect x="72" y="48" width="24" height="16" fill="#000"/>
  <rect x="80" y="64" width="8" height="8" fill="#000"/>
  
  <!-- Nose - simple rectangle -->
  <rect x="60" y="72" width="8" height="16" fill="#000"/>
  
  <!-- Teeth - blocky rectangles -->
  <rect x="48" y="88" width="8" height="8" fill="#000"/>
  <rect x="64" y="88" width="8" height="8" fill="#000"/>
  <rect x="72" y="88" width="8" height="8" fill="#000"/>
</svg>